<svg id="Layer_1" data-name="Layer 1" xmlns="http://www.w3.org/2000/svg" viewBox="0 0 810.45 263.24"><defs><style>.cls-1{fill:#b1803b;}.cls-2{font-size:74.46px;font-family:AcciaPiano-Bold, Accia Piano;font-weight:700;letter-spacing:0.13em;}.cls-2,.cls-5{fill:#145365;}.cls-3{letter-spacing:0.12em;}.cls-4{letter-spacing:0.13em;}.cls-6{fill:#163f45;}.cls-7{fill:#314a4a;}.cls-8{fill:#48554e;}.cls-9{fill:#5f6252;}.cls-10{fill:#766f55;}.cls-11{fill:#8e7d56;}.cls-12{fill:#a98d57;}.cls-13{fill:#c79e56;}</style></defs><path class="cls-1" d="M716.34,247.33c-8.28,1.61-16.53,3.44-24.86,4.78-16.08,2.57-32.18,5-48.32,7.2-9.38,1.27-18.82,2.26-28.27,2.79-29.48,1.66-59,1.67-88.37-1.05-39.06-3.61-77.07-11.81-113.78-26-19-7.36-38.22-14.56-57.89-19.77a218.19,218.19,0,0,0-88.64-4.46C232,215.88,198,222,163.86,227.36a566.9,566.9,0,0,1-107,6.8,353.09,353.09,0,0,1-39.75-3.39c4.92,0,9.86.31,14.76-.05,23.69-1.77,47.43-3.2,71.05-5.74,36.55-3.93,72.29-12.51,108.24-19.92,17.05-3.52,34.4-5.61,51.52-8.81,17.34-3.24,34.85-3.38,52.26-2.42a232.55,232.55,0,0,1,62,11.76c13.68,4.63,27,10.36,40.69,14.86a50,50,0,0,0,18.56,2.7c14.87-1.06,29.89-2.15,44.4-5.3,15.33-3.32,30.28-8.61,45.1-13.87,8.73-3.1,17.09-3.83,25,.67,21.09,12,41.69,9.1,62.48-.69,8.83-4.16,17.84-8,27-11.37,11.94-4.35,23-1.13,33.1,5.69,18.1,12.19,37.44,21.72,59,25.6,16.81,3,33.88,4.64,50.84,6.86,1.4.18,2.83.14,4.25.21l0,1.24c-3,0-6.1,0-9.14,0-27-.28-54-1.33-79.88-10A203.74,203.74,0,0,1,667.8,209c-11.15-5.9-21.47-6-32.72-.37-14.23,7.09-28.56,14.18-44.51,16.87-14.26,2.4-28,.48-40.66-6.29-7.84-4.19-15.11-4.63-23.29-1.46-20,7.78-40.86,12.85-62,16.55a18.89,18.89,0,0,0-2.92,1.36c6.73,1.75,12.14,3.57,17.7,4.53,20.77,3.59,41.49,8.56,62.43,9.94,32.69,2.14,65.56,2.65,98.33,2.18,22.9-.33,45.76-3.45,68.64-5.3,2.48-.2,5-.27,7.45-.4C716.28,246.84,716.31,247.09,716.34,247.33Z"/><text class="cls-2" transform="translate(184.36 53.01)">TH<tspan class="cls-3" x="124.34" y="0">R</tspan><tspan class="cls-4" x="183.5" y="0">OUGH</tspan></text><path class="cls-5" d="M32.44,104v55.55q0,16.13,5.51,17.87v2.48h-32v-2.48q5.5-1.75,5.51-17.87V104q0-16.12-5.51-18.07V83.57H38v2.35Q32.45,87.87,32.44,104Z"/><path class="cls-5" d="M55.14,85.92V83.57H81.53L124.32,143V106.54q0-18.67-5.51-20.62V83.57h25.33v2.35q-5.52,2-5.51,20.76v73.48h-12.5L75,109.43v47.35q0,18.89,5.51,20.63v2.48H55.14v-2.48q5.51-1.75,5.51-20.63V104Q60.65,87.87,55.14,85.92Z"/><path class="cls-5" d="M202.9,83.57q20.28,0,32.41,13.1t12.12,35.06q0,22-12.12,35.06t-32.41,13.1h-42v-2.48q5.51-1.75,5.51-17.87V104q0-16.12-5.51-18.07V83.57Zm0,85q10.41,0,16.49-10t6.08-26.9q0-16.92-6.08-26.9t-16.49-10H187.45v73.75Z"/><path class="cls-5" d="M373.36,85.92V83.57h26.4L442.54,143V106.54q0-18.67-5.51-20.62V83.57h25.32v2.35q-5.5,2-5.5,20.76v73.48h-12.5l-51.18-70.73v47.35q0,18.89,5.51,20.63v2.48H373.36v-2.48q5.5-1.75,5.51-20.63V104Q378.87,87.87,373.36,85.92Z"/><path class="cls-5" d="M505.67,168.61h25.46a21.81,21.81,0,0,0,11-2.49,11.74,11.74,0,0,0,5.68-7h4.43l-2.89,20.75H479.14v-2.48q5.5-1.75,5.51-17.87V104q0-16.12-5.51-18.07V83.57h68.65l3,20.82h-4.37a11.86,11.86,0,0,0-5.67-7,21.62,21.62,0,0,0-11-2.51H505.67v30.56h13.64a24.17,24.17,0,0,0,10-1.75,8.24,8.24,0,0,0,4.84-4.84h3.9v24.45h-3.9q-1-3-4.84-4.8a24,24,0,0,0-10-1.78H505.67Z"/><path class="cls-5" d="M568.13,173.44l3-20.08q17.6,16.78,33.45,16.79,15.52,0,15.52-11.55a11.86,11.86,0,0,0-4.1-9.24q-4.1-3.66-14.71-7.82-17.05-6.45-24.85-14.38A26.35,26.35,0,0,1,568.67,108q0-12.56,9.2-19.27T604.74,82q16.51,0,29.15,7.72l-3,19.89q-15.58-16.2-29-16.19-13.23,0-13.23,10.74a11.79,11.79,0,0,0,4.13,9.24q4.13,3.66,14.88,7.83,17.05,6.44,24.75,14.23a25.92,25.92,0,0,1,7.69,18.88q0,13.17-10.21,20.22t-29.83,7a69.45,69.45,0,0,1-17.29-1.95A55,55,0,0,1,568.13,173.44Z"/><path class="cls-5" d="M684.06,104v55.55q0,16.13,5.5,17.87v2.48h-32v-2.48q5.51-1.75,5.51-17.87V104q0-16.12-5.51-18.07V83.57h32v2.35Q684.06,87.87,684.06,104Z"/><path class="cls-5" d="M728.91,179.89H702.38v-2.48q6.12-2.57,12.77-19.15l30.29-74.42,14.31-.94,31.16,76.64q6.45,16.05,12.56,17.87l.14,2.48H769v-2.48q5.91-1.75,2-12.36l-4.36-11H731.4l-4,9.87q-4.3,10.95,1.54,13.51ZM749,108l-13.5,34.8h27Z"/><g id="_Radial_Repeat_" data-name="&lt;Radial Repeat&gt;"><path class="cls-6" d="M356.75,109.1s-10.23-17.46-25-23c0,0-17.75,6.87-27.31,19.56C304.4,105.63,334.39,98.83,356.75,109.1Z"/></g><g id="_Radial_Repeat_2" data-name="&lt;Radial Repeat&gt;"><path class="cls-7" d="M359.66,147.4s5.11-19.58-1.42-34c0,0-17.41-7.69-33.14-5.47C325.1,107.94,351.11,124.33,359.66,147.4Z"/></g><g id="_Radial_Repeat_3" data-name="&lt;Radial Repeat&gt;"><path class="cls-8" d="M334.64,176.55s17.45-10.24,23-25c0,0-6.87-17.75-19.56-27.31C338.1,124.2,344.9,154.18,334.64,176.55Z"/></g><g id="_Radial_Repeat_4" data-name="&lt;Radial Repeat&gt;"><path class="cls-9" d="M296.33,179.46s19.58,5.1,34-1.42c0,0,7.69-17.41,5.47-33.15C335.79,144.89,319.4,170.9,296.33,179.46Z"/></g><g id="_Radial_Repeat_5" data-name="&lt;Radial Repeat&gt;"><path class="cls-10" d="M267.18,154.43s10.24,17.45,25,23c0,0,17.75-6.88,27.31-19.57C319.53,157.89,289.55,164.7,267.18,154.43Z"/></g><g id="_Radial_Repeat_6" data-name="&lt;Radial Repeat&gt;"><path class="cls-11" d="M264.27,116.13s-5.1,19.57,1.42,34c0,0,17.41,7.69,33.15,5.48C298.84,155.59,272.83,139.2,264.27,116.13Z"/></g><g id="_Radial_Repeat_7" data-name="&lt;Radial Repeat&gt;"><path class="cls-12" d="M289.3,87s-17.45,10.24-23,25c0,0,6.88,17.75,19.57,27.31C285.84,139.33,279,109.35,289.3,87Z"/></g><g id="_Radial_Repeat_8" data-name="&lt;Radial Repeat&gt;"><path class="cls-13" d="M327.6,84.07s-19.57-5.1-34,1.42c0,0-7.69,17.41-5.48,33.14C288.14,118.63,304.53,92.62,327.6,84.07Z"/></g></svg>