<svg id="Layer_1" data-name="Layer 1" xmlns="http://www.w3.org/2000/svg" viewBox="0 0 810.45 263.24"><defs><style>.cls-1{fill:#b1803b;}.cls-2{font-size:74.46px;letter-spacing:0.13em;}.cls-2,.cls-5{fill:#145365;font-family:AcciaPiano-Bold, Accia Piano;font-weight:700;}.cls-3{letter-spacing:0.12em;}.cls-4{letter-spacing:0.13em;}.cls-5{font-size:137.56px;letter-spacing:0.04em;}</style></defs><path class="cls-1" d="M716.34,247.33c-8.28,1.61-16.53,3.44-24.86,4.78-16.08,2.57-32.18,5-48.32,7.2-9.38,1.27-18.82,2.26-28.27,2.79-29.48,1.66-59,1.67-88.37-1.05-39.06-3.61-77.07-11.81-113.78-26-19-7.36-38.22-14.56-57.89-19.77a218.19,218.19,0,0,0-88.64-4.46C232,215.88,198,222,163.86,227.36a566.9,566.9,0,0,1-107,6.8,353.09,353.09,0,0,1-39.75-3.39c4.92,0,9.86.31,14.76-.05,23.69-1.77,47.43-3.2,71.05-5.74,36.55-3.93,72.29-12.51,108.24-19.92,17.05-3.52,34.4-5.61,51.52-8.81,17.34-3.24,34.85-3.38,52.26-2.42a232.55,232.55,0,0,1,62,11.76c13.68,4.63,27,10.36,40.69,14.86a50,50,0,0,0,18.56,2.7c14.87-1.06,29.89-2.15,44.4-5.3,15.33-3.32,30.28-8.61,45.1-13.87,8.73-3.1,17.09-3.83,25,.67,21.09,12,41.69,9.1,62.48-.69,8.83-4.16,17.84-8,27-11.37,11.94-4.35,23-1.13,33.1,5.69,18.1,12.19,37.44,21.72,59,25.6,16.81,3,33.88,4.64,50.84,6.86,1.4.18,2.83.14,4.25.21l0,1.24c-3,0-6.1,0-9.14,0-27-.28-54-1.33-79.88-10A203.74,203.74,0,0,1,667.8,209c-11.15-5.9-21.47-6-32.72-.37-14.23,7.09-28.56,14.18-44.51,16.87-14.26,2.4-28,.48-40.66-6.29-7.84-4.19-15.11-4.63-23.29-1.46-20,7.78-40.86,12.85-62,16.55a18.89,18.89,0,0,0-2.92,1.36c6.73,1.75,12.14,3.57,17.7,4.53,20.77,3.59,41.49,8.56,62.43,9.94,32.69,2.14,65.56,2.65,98.33,2.18,22.9-.33,45.76-3.45,68.64-5.3,2.48-.2,5-.27,7.45-.4C716.28,246.84,716.31,247.09,716.34,247.33Z"/><text class="cls-2" transform="translate(184.36 53.01)">TH<tspan class="cls-3" x="124.34" y="0">R</tspan><tspan class="cls-4" x="183.5" y="0">OUGH</tspan></text><text class="cls-5" transform="translate(0 180.03)">INDONESIA</text></svg>